<svg width="120" height="120" viewBox="0 0 120 120" fill="none" xmlns="http://www.w3.org/2000/svg">
  <defs>
    <linearGradient id="brandGradient" x1="0%" y1="0%" x2="100%" y2="100%">
      <stop offset="0%" stopColor="#3b82f6" />
      <stop offset="50%" stopColor="#8b5cf6" />
      <stop offset="100%" stopColor="#06b6d4" />
    </linearGradient>
    <linearGradient id="frameGradient" x1="0%" y1="0%" x2="100%" y2="100%">
      <stop offset="0%" stopColor="#6366f1" />
      <stop offset="100%" stopColor="#8b5cf6" />
    </linearGradient>
    <linearGradient id="accentGradient" x1="0%" y1="0%" x2="100%" y2="0%">
      <stop offset="0%" stopColor="#06b6d4" />
      <stop offset="100%" stopColor="#3b82f6" />
    </linearGradient>
  </defs>
  
  <!-- Outer frame -->
  <rect 
    x="20" 
    y="20" 
    width="80" 
    height="80" 
    fill="none" 
    stroke="url(#frameGradient)" 
    strokeWidth="2" 
    rx="8"
  />
  
  <!-- Corner accent marks -->
  <g stroke="url(#accentGradient)" strokeWidth="2" fill="none">
    <path d="M25 30 L25 25 L30 25" />
    <path d="M95 30 L95 25 L90 25" />
    <path d="M25 90 L25 95 L30 95" />
    <path d="M95 90 L95 95 L90 95" />
  </g>
  
  <!-- Main Brand "A" -->
  <path
    d="M60 35 L50 65 L54 65 L56 58 L64 58 L66 65 L70 65 L60 35 Z M58 48 L62 52 L58 52 Z"
    fill="url(#brandGradient)"
  />
  
  <!-- Geometric accent lines -->
  <line x1="45" y1="50" x2="75" y2="50" stroke="url(#accentGradient)" strokeWidth="2" opacity="0.8" />
  <line x1="52" y1="42" x2="68" y2="42" stroke="url(#accentGradient)" strokeWidth="1.5" opacity="0.6" />
  
  <!-- Neural connection nodes -->
  <circle cx="45" cy="50" r="2" fill="url(#accentGradient)" />
  <circle cx="75" cy="50" r="2" fill="url(#accentGradient)" />
  <circle cx="52" cy="42" r="1.5" fill="url(#accentGradient)" />
  <circle cx="68" cy="42" r="1.5" fill="url(#accentGradient)" />
</svg>